<svg xmlns="http://www.w3.org/2000/svg" width="259.673" height="62.24" viewBox="0 0 259.673 62.24"><defs><style>.a{fill:#fff;}</style></defs><g transform="translate(-15.831 -14.141)"><g transform="translate(88.628 21.4)"><g transform="translate(0 5.073)"><path class="a" d="M124.579,34.836h-9.841v11.74H126.25V53.11H114.738V64.85h4.712v6.172H102.272V64.85h3.758V34.836h-4.474V28.663h30.36V41.127h-6.979Z" transform="translate(-101.556 -28.663)"/><path class="a" d="M155.295,52.644c0-4.781-1.97-6.051-5.905-6.051a18.7,18.7,0,0,0-5.189.908v4.236h-7.158V43.688a27.127,27.127,0,0,1,12.464-3.267c8.35,0,13.66,2.965,13.66,12.163,0,5.2-.18,9.561-.3,14.04h3.517V72.8h-10.5V70.86a16.621,16.621,0,0,1,.419-4.359h-.121c-2.086,4.78-4.948,7.02-10.2,7.02-7.038,0-10.437-4.236-10.437-9.2a9.178,9.178,0,0,1,6.263-8.714c3.162-1.148,7.4-1.452,13.48-1.452Zm-2.447,6.717c-6.8,0-8.946,1.451-8.946,4.175,0,1.876,1.313,3.811,4.592,3.811,3.342,0,6.681-2.178,6.681-7.987Z" transform="translate(-106.683 -30.436)"/><path class="a" d="M178.324,47.32h-4.057V41.146h12.227a30.711,30.711,0,0,1-.477,6.535h.119a11.059,11.059,0,0,1,10.8-7.261c7.4,0,10.8,4.781,10.8,12.344V66.624h3.579V72.8h-15.33V66.624h3.4V53.612c0-4.356-2.266-5.931-5.429-5.931-5.069,0-7.276,3.631-7.276,8.412v10.53h3.579V72.8h-14.97V66.624h3.042Z" transform="translate(-112.522 -30.436)"/><path class="a" d="M238.681,46.956a12.4,12.4,0,0,0-2.863-.363c-5.546,0-7.872,5.144-7.872,9.5,0,5.385,2.743,10.53,9.9,10.53a18.029,18.029,0,0,0,7.814-1.756l-.478,7.142a22.918,22.918,0,0,1-9.365,1.512C225.2,73.522,219.6,66.14,219.6,57c0-10.226,6.442-16.58,16.4-16.58a32.077,32.077,0,0,1,9.841,1.512v9.258h-7.159Z" transform="translate(-119.358 -30.436)"/><path class="a" d="M258.122,47.449h-4.057V41.275h12.407V66.752h3.578v6.172h-15.33V66.752h3.4Z" transform="translate(-124.556 -30.565)"/><path class="a" d="M278.525,33.494l8.35-.485v7.019h8.35V46.2h-8.35V60.3c0,4.477,1.133,5.567,4.593,5.567a11.757,11.757,0,0,0,4.056-.968l-.3,5.991a21.542,21.542,0,0,1-7.276,1.512c-6.143,0-9.424-2.9-9.424-8.472V46.2H274.29V40.028h4.235Z" transform="translate(-127.606 -29.318)"/></g><path class="a" d="M267.8,27.971a5.209,5.209,0,1,1-5.207-5.282A5.243,5.243,0,0,1,267.8,27.971Z" transform="translate(-125.056 -22.689)"/></g><path class="a" d="M48.4,15.024a32.572,32.572,0,0,0-14.99,61.49c16.855-9.074,14.339-21.034,12.8-27.352-.9-3.693-4.882-12.833-1.453-16.633l-1-.725c-.975-.621-1.979-1.2-2.722-1.658l-.668-.358a.737.737,0,0,1-.259.162.753.753,0,1,1,.485-.63l.7.31c.786.4,1.85.914,2.893,1.471.436.267.87.532,1.286.788.048-.035.1-.064.154-.1l-.841-1.242c-.7-.917-1.449-1.807-1.991-2.489-.193-.217-.362-.406-.505-.565a.759.759,0,1,1,.372-.362q.237.225.555.532c.6.645,1.427,1.49,2.216,2.37.355.446.707.891,1.041,1.309l.02-.009.087-.031-.4-1.581c-.348-1.1-.742-2.193-1.019-3.02-.108-.27-.2-.5-.282-.7a.76.76,0,1,1,.473-.213l.341.69c.343.812.83,1.889,1.271,2.985.177.534.357,1.067.525,1.571a6.527,6.527,0,0,1,1.156-.144l.056,0h.019a9.363,9.363,0,0,1,5.723,2.006l.024.018a28.64,28.64,0,0,1,7.41,2.409l.007,0h0c-1.975-.21-10.149.25-12.131,3.111-2.417,3.488-.058,9.233,7.2,17.371A34.882,34.882,0,0,1,65.881,75.08,32.57,32.57,0,0,0,48.4,15.024Z" transform="translate(0 -0.133)"/><g transform="translate(262.91 14.141)"><path class="a" d="M319.383,20.27a6.3,6.3,0,1,1-6.278-6.129A6.158,6.158,0,0,1,319.383,20.27Zm-11.023,0a4.748,4.748,0,0,0,4.783,4.895,4.692,4.692,0,0,0,4.67-4.857,4.73,4.73,0,1,0-9.453-.037Zm3.774,3.214h-1.421V17.354a12.423,12.423,0,0,1,2.356-.187,3.814,3.814,0,0,1,2.129.448,1.7,1.7,0,0,1,.6,1.345,1.569,1.569,0,0,1-1.27,1.421v.075a1.809,1.809,0,0,1,1.122,1.495,4.669,4.669,0,0,0,.448,1.533h-1.533a5.323,5.323,0,0,1-.486-1.5c-.112-.673-.486-.971-1.27-.971h-.673Zm.037-3.476h.673c.786,0,1.421-.262,1.421-.9,0-.561-.412-.934-1.309-.934a3.463,3.463,0,0,0-.785.074Z" transform="translate(-306.79 -14.141)"/></g></g></svg>