<svg xmlns="http://www.w3.org/2000/svg" width="26.895" height="26.715" viewBox="0 0 26.895 26.715"><defs><style>.a{fill:#fff;}</style></defs><path class="a" d="M621.5,33.046c3.591,0,4.016.014,5.434.078a7.485,7.485,0,0,1,2.5.46,4.438,4.438,0,0,1,2.552,2.535,7.348,7.348,0,0,1,.463,2.48c.065,1.409.078,1.831.078,5.4s-.014,3.989-.078,5.4a7.348,7.348,0,0,1-.463,2.48,4.438,4.438,0,0,1-2.552,2.535,7.486,7.486,0,0,1-2.5.46c-1.418.064-1.843.078-5.434.078s-4.016-.014-5.434-.078a7.485,7.485,0,0,1-2.5-.46,4.439,4.439,0,0,1-2.552-2.535,7.35,7.35,0,0,1-.463-2.48c-.065-1.409-.078-1.831-.078-5.4s.014-3.989.078-5.4a7.35,7.35,0,0,1,.463-2.48,4.439,4.439,0,0,1,2.552-2.535,7.484,7.484,0,0,1,2.5-.46c1.418-.064,1.843-.078,5.434-.078m0-2.407c-3.652,0-4.11.015-5.544.08a9.928,9.928,0,0,0-3.264.621,6.853,6.853,0,0,0-3.933,3.907,9.75,9.75,0,0,0-.625,3.242c-.065,1.425-.081,1.88-.081,5.507s.015,4.083.081,5.507a9.749,9.749,0,0,0,.625,3.242,6.853,6.853,0,0,0,3.933,3.907,9.928,9.928,0,0,0,3.264.621c1.434.065,1.892.08,5.544.08s4.11-.015,5.544-.08a9.928,9.928,0,0,0,3.264-.621,6.853,6.853,0,0,0,3.933-3.907,9.748,9.748,0,0,0,.625-3.242c.065-1.425.081-1.88.081-5.507s-.016-4.083-.081-5.507a9.748,9.748,0,0,0-.625-3.242,6.853,6.853,0,0,0-3.933-3.907,9.929,9.929,0,0,0-3.264-.621c-1.434-.065-1.892-.08-5.544-.08Z" transform="translate(-608.054 -30.639)"/><path class="a" d="M737.514,153.2a6.86,6.86,0,1,0,6.905,6.859A6.882,6.882,0,0,0,737.514,153.2Zm0,11.312A4.453,4.453,0,1,1,742,160.054,4.468,4.468,0,0,1,737.514,164.507Z" transform="translate(-724.067 -146.697)"/><ellipse class="a" cx="1.614" cy="1.603" rx="1.614" ry="1.603" transform="translate(19.012 4.624)"/></svg>